<svg width="30" height="30" viewBox="0 0 30 30" fill="none" xmlns="http://www.w3.org/2000/svg">
<path d="M13.1925 7.79997L8.9638 2.91872C8.4763 2.35622 7.58255 2.35872 7.0163 2.92622L3.5388 6.40997C2.5038 7.44622 2.20755 8.98497 2.8063 10.2187C6.38332 17.6249 12.3564 23.6063 19.7575 27.1937C20.99 27.7925 22.5275 27.4962 23.5625 26.46L27.0726 22.9437C27.6413 22.375 27.6425 21.4762 27.075 20.9887L22.175 16.7825C21.6625 16.3425 20.8663 16.4 20.3525 16.915L18.6475 18.6225C18.5603 18.7139 18.4454 18.7743 18.3205 18.7941C18.1956 18.814 18.0677 18.7923 17.9563 18.7325C15.1694 17.1276 12.8575 14.8128 11.2563 12.0237C11.1963 11.9122 11.1746 11.784 11.1945 11.6589C11.2144 11.5338 11.2747 11.4187 11.3663 11.3312L13.0663 9.62997C13.5813 9.11247 13.6375 8.31247 13.1925 7.79872V7.79997Z" stroke="#DFE16C" stroke-width="2" stroke-linecap="round" stroke-linejoin="round"/>
</svg>
