<svg width="264" height="280" viewBox="0 0 264 280" fill="none" xmlns="http://www.w3.org/2000/svg">
  <mask id="mask0_28_306" style="mask-type:alpha" maskUnits="userSpaceOnUse" x="12" y="40" width="240" height="240">
    <path d="M132 280C198.274 280 252 226.274 252 160C252 93.7258 198.274 40 132 40C65.7258 40 12 93.7258 12 160C12 226.274 65.7258 280 132 280Z" fill="white"/>
  </mask>
  <g mask="url(#mask0_28_306)">
    <path d="M132 280C198.274 280 252 226.274 252 160C252 93.7258 198.274 40 132 40C65.7258 40 12 93.7258 12 160C12 226.274 65.7258 280 132 280Z" fill="#E6E6E6"/>
    <path d="M252 40H12V280H252V40Z" fill="#65C9FF"/>
  </g>
  <mask id="mask1_28_306" style="mask-type:alpha" maskUnits="userSpaceOnUse" x="0" y="0" width="264" height="280">
    <path d="M12 160C12 226.274 65.7258 280 132 280C198.274 280 252 226.274 252 160H264V0H0V160H12Z" fill="white"/>
  </mask>
  <g mask="url(#mask1_28_306)">
    <mask id="mask2_28_306" style="mask-type:alpha" maskUnits="userSpaceOnUse" x="32" y="36" width="200" height="244">
      <path d="M156 180.611V199H160C199.764 199 232 231.236 232 271V280H32V271C32 231.236 64.2355 199 104 199H108V180.611C90.7626 172.422 78.3722 155.687 76.3051 135.881C70.4803 135.058 66 130.052 66 124V110C66 104.054 70.3246 99.1181 76 98.1659V92C76 61.0721 101.072 36 132 36C162.928 36 188 61.0721 188 92V98.1659C193.675 99.1181 198 104.054 198 110V124C198 130.052 193.52 135.058 187.695 135.881C185.628 155.687 173.237 172.422 156 180.611Z" fill="white"/>
    </mask>
    <g mask="url(#mask2_28_306)">
      <path d="M156 180.611V199H160C199.764 199 232 231.236 232 271V280H32V271C32 231.236 64.2355 199 104 199H108V180.611C90.7626 172.422 78.3722 155.687 76.3051 135.881C70.4803 135.058 66 130.052 66 124V110C66 104.054 70.3246 99.1181 76 98.1659V92C76 61.0721 101.072 36 132 36C162.928 36 188 61.0721 188 92V98.1659C193.675 99.1181 198 104.054 198 110V124C198 130.052 193.52 135.058 187.695 135.881C185.628 155.687 173.237 172.422 156 180.611Z" fill="#D0C6AC"/>
      <path d="M296 36H32V316H296V36Z" fill="#EDB98A"/>
      <path fill-rule="evenodd" clip-rule="evenodd" d="M188 115V138C188 168.928 162.928 194 132 194C101.072 194 76 168.928 76 138V115V130C76 160.928 101.072 186 132 186C162.928 186 188 160.928 188 130V115Z" fill="black" fill-opacity="0.1"/>
    </g>
    <mask id="mask3_28_306" style="mask-type:alpha" maskUnits="userSpaceOnUse" x="32" y="199" width="200" height="81">
      <path fill-rule="evenodd" clip-rule="evenodd" d="M165.96 199.295C202.936 202.325 232 233.294 232 271.052V280H32V271.052C32 232.953 61.592 201.765 99.0454 199.22C99.0153 199.593 99 199.969 99 200.348C99 212.211 113.998 221.828 132.5 221.828C151.002 221.828 166 212.211 166 200.348C166 199.995 165.987 199.644 165.96 199.295Z" fill="white"/>
    </mask>
    <g mask="url(#mask3_28_306)">
      <path fill-rule="evenodd" clip-rule="evenodd" d="M165.96 199.295C202.936 202.325 232 233.294 232 271.052V280H32V271.052C32 232.953 61.592 201.765 99.0454 199.22C99.0153 199.593 99 199.969 99 200.348C99 212.211 113.998 221.828 132.5 221.828C151.002 221.828 166 212.211 166 200.348C166 199.995 165.987 199.644 165.96 199.295Z" fill="#E6E6E6"/>
      <path d="M264 170H0V280H264V170Z" fill="#5199E4"/>
      <g opacity="0.6">
        <g opacity="0.6">
          <path opacity="0.6" d="M132.5 228.761C154.39 228.761 172.135 216.712 172.135 201.848C172.135 186.984 154.39 174.934 132.5 174.934C110.61 174.934 92.8649 186.984 92.8649 201.848C92.8649 216.712 110.61 228.761 132.5 228.761Z" fill="black" fill-opacity="0.16"/>
        </g>
      </g>
    </g>
    <mask id="mask4_28_306" style="mask-type:alpha" maskUnits="userSpaceOnUse" x="113" y="147" width="38" height="19">
      <path fill-rule="evenodd" clip-rule="evenodd" d="M113.118 149.128C114.176 158.62 122.226 166 132 166C141.804 166 149.874 158.574 150.892 149.04C150.974 148.273 150.117 147 149.043 147C134.149 147 122.738 147 115.087 147C114.007 147 113.012 148.178 113.118 149.128Z" fill="white"/>
    </mask>
    <g mask="url(#mask4_28_306)">
      <path fill-rule="evenodd" clip-rule="evenodd" d="M113.118 149.128C114.176 158.62 122.226 166 132 166C141.804 166 149.874 158.574 150.892 149.04C150.974 148.273 150.117 147 149.043 147C134.149 147 122.738 147 115.087 147C114.007 147 113.012 148.178 113.118 149.128Z" fill="black" fill-opacity="0.7"/>
      <path d="M143 136H122C119.239 136 117 138.239 117 141V147C117 149.761 119.239 152 122 152H143C145.761 152 148 149.761 148 147V141C148 138.239 145.761 136 143 136Z" fill="white"/>
      <path d="M127 180C133.075 180 138 175.075 138 169C138 162.925 133.075 158 127 158C120.925 158 116 162.925 116 169C116 175.075 120.925 180 127 180Z" fill="#FF4F6D"/>
      <path d="M137 180C143.075 180 148 175.075 148 169C148 162.925 143.075 158 137 158C130.925 158 126 162.925 126 169C126 175.075 130.925 180 137 180Z" fill="#FF4F6D"/>
    </g>
    <path fill-rule="evenodd" clip-rule="evenodd" d="M120 130C120 134.418 125.373 138 132 138C138.627 138 144 134.418 144 130" fill="black" fill-opacity="0.16"/>
    <path fill-rule="evenodd" clip-rule="evenodd" d="M92.1602 112.447C94.0067 108.649 98.1644 106 102.998 106C107.814 106 111.959 108.63 113.815 112.407C114.367 113.529 113.582 114.447 112.791 113.767C110.34 111.66 106.859 110.344 102.998 110.344C99.2572 110.344 95.8738 111.579 93.4375 113.572C92.5468 114.3 91.6201 113.558 92.1602 112.447Z" fill="black" fill-opacity="0.6"/>
    <path fill-rule="evenodd" clip-rule="evenodd" d="M150.16 112.447C152.007 108.649 156.164 106 160.998 106C165.814 106 169.959 108.63 171.815 112.407C172.367 113.529 171.582 114.447 170.791 113.767C168.34 111.66 164.859 110.344 160.998 110.344C157.257 110.344 153.874 111.579 151.438 113.572C150.547 114.3 149.62 113.558 150.16 112.447Z" fill="black" fill-opacity="0.6"/>
    <path d="M91.6303 99.1586C95.5452 93.6499 106.278 90.5608 115.523 92.8312C116.596 93.0946 117.679 92.4386 117.942 91.3659C118.206 90.2932 117.55 89.21 116.477 88.9466C105.74 86.31 93.3121 89.887 88.3698 96.8414C87.7299 97.7418 87.9411 98.9904 88.8414 99.6303C89.7418 100.27 90.9904 100.059 91.6303 99.1586Z" fill="black" fill-opacity="0.6"/>
    <path d="M172.37 99.1586C168.455 93.6499 157.722 90.5608 148.477 92.8312C147.405 93.0946 146.321 92.4386 146.058 91.3659C145.795 90.2932 146.451 89.21 147.523 88.9466C158.26 86.31 170.688 89.887 175.631 96.8414C176.27 97.7418 176.059 98.9904 175.159 99.6303C174.259 100.27 173.01 100.059 172.37 99.1586Z" fill="black" fill-opacity="0.6"/>
    <mask id="mask5_28_306" style="mask-type:alpha" maskUnits="userSpaceOnUse" x="0" y="0" width="264" height="280">
      <path d="M264 0H0V280H264V0Z" fill="white"/>
    </mask>
    <g mask="url(#mask5_28_306)">
      <mask id="mask6_28_306" style="mask-type:alpha" maskUnits="userSpaceOnUse" x="100" y="135" width="64" height="17">
        <path fill-rule="evenodd" clip-rule="evenodd" d="M131.998 146.84C131.457 147.609 130.761 148.25 129.95 148.689C121.048 153.51 111.877 149.332 106.876 149.63C104.46 149.774 101.341 151.415 100.216 149.679C98.9769 147.767 103.068 137.221 112.721 135.464C119.731 134.189 129.497 135.602 131.998 138.938C134.499 135.602 144.265 134.189 151.274 135.464C160.928 137.221 165.019 147.767 163.78 149.679C162.655 151.415 159.536 149.774 157.12 149.63C152.119 149.332 142.948 153.51 134.046 148.689C133.235 148.25 132.539 147.609 131.998 146.84Z" fill="white"/>
      </mask>
      <g mask="url(#mask6_28_306)">
        <path fill-rule="evenodd" clip-rule="evenodd" d="M131.998 146.84C131.457 147.609 130.761 148.25 129.95 148.689C121.048 153.51 111.877 149.332 106.876 149.63C104.46 149.774 101.341 151.415 100.216 149.679C98.9769 147.767 103.068 137.221 112.721 135.464C119.731 134.189 129.497 135.602 131.998 138.938C134.499 135.602 144.265 134.189 151.274 135.464C160.928 137.221 165.019 147.767 163.78 149.679C162.655 151.415 159.536 149.774 157.12 149.63C152.119 149.332 142.948 153.51 134.046 148.689C133.235 148.25 132.539 147.609 131.998 146.84Z" fill="#28354B"/>
        <path d="M280 72H16V316H280V72Z" fill="#2C1B18"/>
      </g>
      <mask id="mask7_28_306" style="mask-type:alpha" maskUnits="userSpaceOnUse" x="72" y="9" width="121" height="91">
        <path fill-rule="evenodd" clip-rule="evenodd" d="M93.2519 52.0221C93.3749 51.9677 93.0697 51.9468 92.3361 51.9595C93.2277 51.9577 93.5329 51.9785 93.2519 52.0221ZM85.117 36.3016C85.1148 36.282 85.1338 36.4527 85.117 36.3016V36.3016ZM192.765 70.7657C192.501 67.4487 192.033 64.1519 191.247 60.9111C190.622 58.3354 189.769 55.8775 188.76 53.42C188.151 51.9354 186.728 49.8961 186.56 48.2945C186.395 46.7169 187.627 44.9691 187.889 43.1323C188.144 41.3448 188.101 39.4652 187.734 37.6939C186.901 33.671 184.14 29.93 179.877 28.8814C178.925 28.6472 176.913 28.9358 176.241 28.3816C175.47 27.746 174.933 25.5807 174.235 24.7122C172.244 22.2362 169.14 20.6417 165.866 21.1976C163.455 21.6068 164.839 22.1053 163.032 20.6864C162.027 19.8976 161.276 18.6932 160.3 17.8392C158.833 16.5564 157.15 15.4582 155.408 14.557C150.851 12.1989 145.654 10.4849 140.564 9.64943C131.279 8.12524 121.369 9.45409 112.369 11.8688C107.89 13.0703 103.382 14.5952 99.2221 16.6118C97.4386 17.4764 96.409 18.1936 94.5495 18.4201C91.6207 18.7767 89.1405 18.7589 86.3661 20.001C77.8298 23.8229 73.9849 32.6898 77.3067 41.175C77.9748 42.8816 78.8795 44.3802 80.1267 45.7586C81.6475 47.4393 82.1976 47.1085 80.8878 49.0412C78.929 51.9312 77.2777 55.0129 75.9333 58.2129C72.4043 66.6146 71.8138 76.0772 72.0436 85.0373C72.124 88.1741 72.2586 91.3495 72.7532 94.4562C72.9668 95.8009 73.0267 98.3293 74.0354 99.3271C74.5471 99.8331 75.2762 100.115 76.0036 99.9138C77.7131 99.4402 77.1253 98.1787 77.165 97.0076C77.3649 91.124 77.095 85.9191 78.4943 80.1065C79.5279 75.8119 81.2505 71.9115 83.4828 68.0714C86.3214 63.1872 89.3857 58.8977 93.2895 54.7155C94.2073 53.732 94.4079 53.3151 95.6386 53.2438C96.5705 53.19 97.9338 53.8282 98.8399 54.0492C100.838 54.5361 102.839 55.0174 104.873 55.3453C108.613 55.9482 112.317 55.9886 116.09 55.8704C123.516 55.6381 130.975 55.1172 138.175 53.2471C142.957 52.0054 147.197 49.7762 151.777 48.1422C151.859 48.1131 153.007 47.2951 153.208 47.3285C153.489 47.3748 155.185 49.1543 155.471 49.3784C157.697 51.1239 160.138 51.8567 162.541 53.2082C165.505 54.8746 162.635 52.49 164.269 54.5668C164.746 55.1716 164.99 56.2932 165.372 56.9783C166.588 59.1611 168.28 61.0795 170.303 62.6018C172.258 64.0725 175.196 64.7829 176.193 66.6972C176.962 68.1741 177.221 70.1813 177.841 71.7579C179.469 75.8932 181.618 79.7495 183.767 83.6443C185.499 86.7831 187.392 89.525 187.585 93.1118C187.652 94.3603 186.464 101.849 189.358 99.5717C189.786 99.2341 190.711 95.4157 190.901 94.7678C191.673 92.1351 191.947 89.3867 192.296 86.6817C192.99 81.3022 193.219 76.1837 192.765 70.7657Z" fill="white"/>
      </mask>
      <g mask="url(#mask7_28_306)">
        <path fill-rule="evenodd" clip-rule="evenodd" d="M93.2519 52.0221C93.3749 51.9677 93.0697 51.9468 92.3361 51.9595C93.2277 51.9577 93.5329 51.9785 93.2519 52.0221ZM85.117 36.3016C85.1148 36.282 85.1338 36.4527 85.117 36.3016V36.3016ZM192.765 70.7657C192.501 67.4487 192.033 64.1519 191.247 60.9111C190.622 58.3354 189.769 55.8775 188.76 53.42C188.151 51.9354 186.728 49.8961 186.56 48.2945C186.395 46.7169 187.627 44.9691 187.889 43.1323C188.144 41.3448 188.101 39.4652 187.734 37.6939C186.901 33.671 184.14 29.93 179.877 28.8814C178.925 28.6472 176.913 28.9358 176.241 28.3816C175.47 27.746 174.933 25.5807 174.235 24.7122C172.244 22.2362 169.14 20.6417 165.866 21.1976C163.455 21.6068 164.839 22.1053 163.032 20.6864C162.027 19.8976 161.276 18.6932 160.3 17.8392C158.833 16.5564 157.15 15.4582 155.408 14.557C150.851 12.1989 145.654 10.4849 140.564 9.64943C131.279 8.12524 121.369 9.45409 112.369 11.8688C107.89 13.0703 103.382 14.5952 99.2221 16.6118C97.4386 17.4764 96.409 18.1936 94.5495 18.4201C91.6207 18.7767 89.1405 18.7589 86.3661 20.001C77.8298 23.8229 73.9849 32.6898 77.3067 41.175C77.9748 42.8816 78.8795 44.3802 80.1267 45.7586C81.6475 47.4393 82.1976 47.1085 80.8878 49.0412C78.929 51.9312 77.2777 55.0129 75.9333 58.2129C72.4043 66.6146 71.8138 76.0772 72.0436 85.0373C72.124 88.1741 72.2586 91.3495 72.7532 94.4562C72.9668 95.8009 73.0267 98.3293 74.0354 99.3271C74.5471 99.8331 75.2762 100.115 76.0036 99.9138C77.7131 99.4402 77.1253 98.1787 77.165 97.0076C77.3649 91.124 77.095 85.9191 78.4943 80.1065C79.5279 75.8119 81.2505 71.9115 83.4828 68.0714C86.3214 63.1872 89.3857 58.8977 93.2895 54.7155C94.2073 53.732 94.4079 53.3151 95.6386 53.2438C96.5705 53.19 97.9338 53.8282 98.8399 54.0492C100.838 54.5361 102.839 55.0174 104.873 55.3453C108.613 55.9482 112.317 55.9886 116.09 55.8704C123.516 55.6381 130.975 55.1172 138.175 53.2471C142.957 52.0054 147.197 49.7762 151.777 48.1422C151.859 48.1131 153.007 47.2951 153.208 47.3285C153.489 47.3748 155.185 49.1543 155.471 49.3784C157.697 51.1239 160.138 51.8567 162.541 53.2082C165.505 54.8746 162.635 52.49 164.269 54.5668C164.746 55.1716 164.99 56.2932 165.372 56.9783C166.588 59.1611 168.28 61.0795 170.303 62.6018C172.258 64.0725 175.196 64.7829 176.193 66.6972C176.962 68.1741 177.221 70.1813 177.841 71.7579C179.469 75.8932 181.618 79.7495 183.767 83.6443C185.499 86.7831 187.392 89.525 187.585 93.1118C187.652 94.3603 186.464 101.849 189.358 99.5717C189.786 99.2341 190.711 95.4157 190.901 94.7678C191.673 92.1351 191.947 89.3867 192.296 86.6817C192.99 81.3022 193.219 76.1837 192.765 70.7657Z" fill="#28354B"/>
        <path d="M263 0H-1V280H263V0Z" fill="#2C1B18"/>
      </g>
    </g>
  </g>
</svg>