<svg width="30" height="30" viewBox="0 0 30 30" fill="none" xmlns="http://www.w3.org/2000/svg">
<path d="M26.25 5.625H3.75C3.25272 5.625 2.77581 5.82254 2.42417 6.17417C2.07254 6.52581 1.875 7.00272 1.875 7.5V22.5C1.875 22.9973 2.07254 23.4742 2.42417 23.8258C2.77581 24.1775 3.25272 24.375 3.75 24.375H26.25C26.7473 24.375 27.2242 24.1775 27.5758 23.8258C27.9275 23.4742 28.125 22.9973 28.125 22.5V7.5C28.125 7.00272 27.9275 6.52581 27.5758 6.17417C27.2242 5.82254 26.7473 5.625 26.25 5.625ZM24.1875 7.5L15 13.8562L5.8125 7.5H24.1875ZM3.75 22.5V8.35312L14.4656 15.7687C14.6226 15.8776 14.809 15.936 15 15.936C15.191 15.936 15.3774 15.8776 15.5344 15.7687L26.25 8.35312V22.5H3.75Z" fill="#DFE16C"/>
</svg>
