<svg width="26" height="26" viewBox="0 0 26 26" fill="none" xmlns="http://www.w3.org/2000/svg">
<path d="M13 0.321781C5.81831 0.321781 0 6.14497 0 13.3218C0 19.0686 3.7245 23.9395 8.88631 25.658C9.53875 25.7807 9.77437 25.3785 9.77437 25.0307C9.77437 24.722 9.76706 23.9054 9.76219 22.8215C6.14412 23.6048 5.382 21.0738 5.382 21.0738C4.78969 19.5756 3.93494 19.1734 3.93494 19.1734C2.75844 18.3698 4.02838 18.3869 4.02838 18.3869C5.33162 18.4755 6.01737 19.7235 6.01737 19.7235C7.17681 21.7125 9.05938 21.1372 9.80444 20.8025C9.91819 19.9648 10.257 19.3887 10.6259 19.0678C7.73987 18.742 4.70519 17.6248 4.70519 12.6433C4.70519 11.2207 5.20894 10.062 6.04175 9.15203C5.89794 8.82622 5.45756 7.50184 6.15631 5.71109C6.15631 5.71109 7.24425 5.36416 9.73131 7.04441C10.7907 6.75626 11.8834 6.60848 12.9813 6.60484C14.0863 6.61216 15.1905 6.75678 16.2313 7.04441C18.7037 5.36416 19.7909 5.71109 19.7909 5.71109C20.4888 7.50184 20.0484 8.82541 19.9217 9.15203C20.7464 10.062 21.2501 11.2215 21.2501 12.6433C21.2501 17.6362 18.2114 18.7371 15.3221 19.0548C15.7739 19.444 16.1972 20.2443 16.1972 21.459C16.1972 23.1977 16.1809 24.5985 16.1809 25.0218C16.1809 25.3598 16.4084 25.766 17.0779 25.6352C22.2779 23.9347 25.9984 19.0597 25.9984 13.321C25.9984 6.14416 20.1801 0.320969 12.9984 0.320969L13 0.321781Z" fill="#DFE16C"/>
</svg>
