<svg width="29" height="28" viewBox="0 0 29 28" fill="none" xmlns="http://www.w3.org/2000/svg">
<g clip-path="url(#clip0_101_170)">
<path d="M24.0583 17.5H22.3083C22.0763 17.5 21.8537 17.5922 21.6896 17.7563C21.5255 17.9204 21.4333 18.1429 21.4333 18.375V24.5H3.93335V7H11.8083C12.0404 7 12.263 6.90781 12.4271 6.74372C12.5912 6.57962 12.6833 6.35706 12.6833 6.125V4.375C12.6833 4.14294 12.5912 3.92038 12.4271 3.75628C12.263 3.59219 12.0404 3.5 11.8083 3.5H3.05835C2.36216 3.5 1.69448 3.77656 1.20219 4.26884C0.709911 4.76113 0.43335 5.42881 0.43335 6.125L0.43335 25.375C0.43335 26.0712 0.709911 26.7389 1.20219 27.2312C1.69448 27.7234 2.36216 28 3.05835 28H22.3083C23.0045 28 23.6722 27.7234 24.1645 27.2312C24.6568 26.7389 24.9333 26.0712 24.9333 25.375V18.375C24.9333 18.1429 24.8412 17.9204 24.6771 17.7563C24.513 17.5922 24.2904 17.5 24.0583 17.5ZM27.1208 0H20.1208C18.9522 0 18.3681 1.41695 19.1912 2.24219L21.1451 4.19617L7.81616 17.5202C7.6938 17.6422 7.59672 17.7871 7.53047 17.9466C7.46423 18.1061 7.43013 18.2772 7.43013 18.4499C7.43013 18.6227 7.46423 18.7937 7.53047 18.9532C7.59672 19.1128 7.6938 19.2577 7.81616 19.3796L9.05593 20.6172C9.17786 20.7395 9.32275 20.8366 9.48229 20.9029C9.64183 20.9691 9.81287 21.0032 9.98561 21.0032C10.1584 21.0032 10.3294 20.9691 10.4889 20.9029C10.6485 20.8366 10.7934 20.7395 10.9153 20.6172L24.2377 7.29094L26.1912 9.24219C27.0115 10.0625 28.4333 9.48828 28.4333 8.3125V1.3125C28.4333 0.964403 28.2951 0.630564 28.0489 0.384422C27.8028 0.138281 27.4689 0 27.1208 0V0Z" fill="black"/>
</g>
<defs>
<clipPath id="clip0_101_170">
<rect width="28" height="28" fill="white" transform="translate(0.43335)"/>
</clipPath>
</defs>
</svg>
