<svg width="607" height="397" viewBox="0 0 607 397" fill="none" xmlns="http://www.w3.org/2000/svg">
<g clip-path="url(#clip0_9_510)">
<path d="M57.2455 384.387C59.9315 388.186 63.2612 391.433 67.0681 393.966C67.8777 394.505 68.7089 395.013 69.5545 395.483H89.4529C89.2146 394.983 88.9831 394.474 88.759 393.966C82.5893 380.305 80.6547 364.958 83.2269 350.084C85.7991 335.209 92.749 321.554 103.099 311.039C91.0721 314.937 79.9556 322.537 72.6842 333.314C69.1511 338.562 66.6385 344.49 65.2901 350.758C64.0884 338.222 65.9982 325.574 70.8338 314.042C61.069 322.377 53.4649 333.792 50.5667 346.64C47.6685 359.495 49.7716 373.761 57.2455 384.387Z" fill="#F0F0F0"/>
<path d="M603.854 213.113H468.57C467.735 213.112 466.936 212.764 466.346 212.145C465.756 211.526 465.424 210.687 465.423 209.811V121.997C465.424 121.122 465.756 120.283 466.346 119.664C466.936 119.045 467.735 118.697 468.57 118.696H603.854C604.688 118.697 605.488 119.045 606.077 119.664C606.667 120.283 606.999 121.122 607 121.997V209.811C606.999 210.687 606.667 211.526 606.077 212.145C605.488 212.764 604.688 213.112 603.854 213.113Z" fill="white"/>
<path d="M603.854 213.113H468.57C467.735 213.112 466.936 212.764 466.346 212.145C465.756 211.526 465.424 210.687 465.423 209.811V121.997C465.424 121.122 465.756 120.283 466.346 119.664C466.936 119.045 467.735 118.697 468.57 118.696H603.854C604.688 118.697 605.488 119.045 606.077 119.664C606.667 120.283 606.999 121.122 607 121.997V209.811C606.999 210.687 606.667 211.526 606.077 212.145C605.488 212.764 604.688 213.112 603.854 213.113ZM468.57 120.016C468.069 120.017 467.589 120.226 467.235 120.597C466.881 120.968 466.682 121.472 466.682 121.997V209.811C466.682 210.337 466.881 210.84 467.235 211.211C467.589 211.583 468.069 211.792 468.57 211.792H603.854C604.354 211.792 604.834 211.583 605.188 211.211C605.542 210.84 605.741 210.337 605.742 209.811V121.997C605.741 121.472 605.542 120.968 605.188 120.597C604.834 120.226 604.354 120.017 603.854 120.016H468.57Z" fill="#3F3D56"/>
<path d="M577.112 148.023H495.312C494.561 148.023 493.841 147.71 493.31 147.153C492.779 146.596 492.48 145.84 492.48 145.052C492.48 144.264 492.779 143.508 493.31 142.951C493.841 142.394 494.561 142.081 495.312 142.081H577.112C577.863 142.081 578.583 142.394 579.114 142.951C579.645 143.508 579.943 144.264 579.943 145.052C579.943 145.84 579.645 146.596 579.114 147.153C578.583 147.71 577.863 148.023 577.112 148.023Z" fill="#CCCCCC"/>
<path d="M577.112 168.491H495.312C494.561 168.491 493.841 168.178 493.31 167.621C492.779 167.064 492.48 166.308 492.48 165.52C492.48 164.732 492.779 163.976 493.31 163.419C493.841 162.862 494.561 162.549 495.312 162.549H577.112C577.863 162.549 578.583 162.862 579.114 163.419C579.645 163.976 579.943 164.732 579.943 165.52C579.943 166.308 579.645 167.064 579.114 167.621C578.583 168.178 577.863 168.491 577.112 168.491Z" fill="#CCCCCC"/>
<path d="M569.824 200.944C575.413 200.944 579.943 196.19 579.943 190.326C579.943 184.461 575.413 179.707 569.824 179.707C564.235 179.707 559.705 184.461 559.705 190.326C559.705 196.19 564.235 200.944 569.824 200.944Z" fill="#DFE16C"/>
<path d="M570.102 185.324V184.312H570.387V185.324C570.791 185.342 571.188 185.444 571.554 185.623C571.82 185.754 572.05 185.955 572.22 186.205C572.378 186.438 572.462 186.716 572.461 187.001C572.467 187.209 572.401 187.412 572.274 187.573C572.22 187.646 572.15 187.705 572.07 187.746C571.99 187.786 571.903 187.807 571.815 187.806C571.748 187.807 571.683 187.794 571.622 187.768C571.561 187.742 571.505 187.703 571.459 187.653C571.412 187.604 571.374 187.544 571.349 187.479C571.324 187.414 571.312 187.344 571.313 187.274C571.314 187.175 571.333 187.078 571.371 186.987L571.485 186.735C571.525 186.629 571.544 186.516 571.542 186.402C571.545 186.225 571.491 186.053 571.39 185.913C571.278 185.765 571.128 185.656 570.958 185.596C570.773 185.533 570.582 185.492 570.388 185.477V189.117L570.451 189.157C571.047 189.488 571.589 189.917 572.056 190.428C572.262 190.685 572.426 190.976 572.541 191.29C572.655 191.594 572.714 191.918 572.715 192.245C572.72 192.668 572.615 193.085 572.411 193.45C572.211 193.806 571.918 194.095 571.567 194.282C571.197 194.472 570.798 194.594 570.388 194.641V195.726H570.102V194.661C569.688 194.658 569.279 194.569 568.897 194.401C568.516 194.253 568.18 194 567.923 193.669C567.698 193.373 567.576 193.004 567.578 192.625C567.57 192.358 567.648 192.096 567.8 191.882C567.86 191.79 567.94 191.714 568.034 191.662C568.128 191.609 568.232 191.581 568.339 191.58C568.403 191.577 568.466 191.589 568.526 191.613C568.585 191.638 568.639 191.675 568.684 191.722C568.729 191.769 568.765 191.826 568.788 191.888C568.812 191.951 568.823 192.017 568.821 192.084C568.799 192.289 568.717 192.482 568.586 192.635C568.518 192.73 568.459 192.833 568.412 192.941C568.379 193.025 568.363 193.116 568.364 193.207C568.365 193.449 568.445 193.684 568.589 193.874C568.747 194.086 568.956 194.25 569.195 194.348C569.468 194.46 569.759 194.514 570.051 194.508H570.102V190.162L569.741 189.942C569.398 189.734 569.137 189.561 568.957 189.423C568.782 189.29 568.619 189.138 568.472 188.971C568.108 188.563 567.906 188.025 567.908 187.467C567.906 187.119 567.989 186.776 568.149 186.472C568.305 186.168 568.535 185.912 568.814 185.729C569.204 185.483 569.647 185.343 570.102 185.324ZM570.102 185.47C569.856 185.478 569.614 185.534 569.388 185.636C569.163 185.753 568.977 185.941 568.858 186.174C568.722 186.427 568.652 186.714 568.656 187.004C568.653 187.359 568.757 187.705 568.953 187.994C569.056 188.151 569.181 188.292 569.322 188.413C569.551 188.592 569.79 188.756 570.039 188.904L570.102 188.944V185.47ZM570.387 194.495C570.551 194.48 570.712 194.445 570.867 194.388C570.993 194.337 571.11 194.265 571.215 194.175C571.41 194 571.562 193.777 571.657 193.526C571.767 193.249 571.823 192.952 571.821 192.651C571.796 192.169 571.65 191.702 571.398 191.298C571.147 190.894 570.798 190.566 570.387 190.348V194.495Z" fill="white"/>
<path d="M511.698 154.334H376.413C375.579 154.333 374.78 153.985 374.19 153.366C373.6 152.747 373.268 151.908 373.267 151.032V63.2179C373.268 62.3427 373.6 61.5036 374.19 60.8847C374.78 60.2658 375.579 59.9176 376.413 59.9166H511.698C512.532 59.9176 513.331 60.2658 513.921 60.8847C514.511 61.5036 514.843 62.3427 514.844 63.2179V151.032C514.843 151.908 514.511 152.747 513.921 153.366C513.331 153.985 512.532 154.333 511.698 154.334Z" fill="white"/>
<path d="M511.698 154.334H376.413C375.579 154.333 374.78 153.985 374.19 153.366C373.6 152.747 373.268 151.908 373.267 151.032V63.2179C373.268 62.3427 373.6 61.5036 374.19 60.8847C374.78 60.2658 375.579 59.9176 376.413 59.9166H511.698C512.532 59.9176 513.331 60.2658 513.921 60.8847C514.511 61.5036 514.843 62.3427 514.844 63.2179V151.032C514.843 151.908 514.511 152.747 513.921 153.366C513.331 153.985 512.532 154.333 511.698 154.334ZM376.413 61.2371C375.913 61.2377 375.433 61.4466 375.079 61.8179C374.725 62.1893 374.526 62.6927 374.526 63.2179V151.032C374.526 151.558 374.725 152.061 375.079 152.432C375.433 152.804 375.913 153.013 376.413 153.013H511.698C512.198 153.013 512.678 152.804 513.032 152.432C513.386 152.061 513.585 151.558 513.585 151.032V63.2179C513.585 62.6927 513.386 62.1893 513.032 61.8179C512.678 61.4466 512.198 61.2377 511.698 61.2371H376.413Z" fill="#3F3D56"/>
<path d="M484.955 89.2442H403.156C402.405 89.2442 401.684 88.9311 401.153 88.3739C400.622 87.8167 400.324 87.061 400.324 86.273C400.324 85.485 400.622 84.7293 401.153 84.1721C401.684 83.6148 402.405 83.3018 403.156 83.3018H484.955C485.706 83.3018 486.427 83.6148 486.958 84.1721C487.489 84.7293 487.787 85.485 487.787 86.273C487.787 87.061 487.489 87.8167 486.958 88.3739C486.427 88.9311 485.706 89.2442 484.955 89.2442Z" fill="#CCCCCC"/>
<path d="M484.955 109.712H403.156C402.405 109.712 401.684 109.399 401.153 108.842C400.622 108.285 400.324 107.529 400.324 106.741C400.324 105.953 400.622 105.197 401.153 104.64C401.684 104.083 402.405 103.77 403.156 103.77H484.955C485.706 103.77 486.427 104.083 486.958 104.64C487.489 105.197 487.787 105.953 487.787 106.741C487.787 107.529 487.489 108.285 486.958 108.842C486.427 109.399 485.706 109.712 484.955 109.712Z" fill="#CCCCCC"/>
<path d="M477.668 142.165C483.256 142.165 487.787 137.411 487.787 131.547C487.787 125.682 483.256 120.928 477.668 120.928C472.079 120.928 467.549 125.682 467.549 131.547C467.549 137.411 472.079 142.165 477.668 142.165Z" fill="#DFE16C"/>
<path d="M477.946 126.545V125.533H478.231V126.545C478.635 126.563 479.032 126.665 479.398 126.844C479.664 126.975 479.893 127.176 480.064 127.427C480.222 127.659 480.306 127.937 480.305 128.222C480.311 128.43 480.245 128.633 480.118 128.794C480.064 128.867 479.994 128.926 479.914 128.967C479.834 129.007 479.747 129.028 479.658 129.027C479.592 129.028 479.527 129.015 479.466 128.989C479.404 128.963 479.349 128.924 479.303 128.874C479.255 128.825 479.218 128.765 479.193 128.7C479.168 128.635 479.156 128.565 479.157 128.495C479.157 128.396 479.177 128.299 479.214 128.208L479.329 127.956C479.369 127.85 479.388 127.737 479.386 127.623C479.389 127.446 479.335 127.274 479.233 127.134C479.122 126.986 478.972 126.877 478.802 126.817C478.617 126.754 478.425 126.714 478.231 126.698V130.338L478.295 130.378C478.891 130.709 479.433 131.138 479.899 131.649C480.106 131.906 480.27 132.197 480.385 132.511C480.498 132.815 480.558 133.139 480.559 133.466C480.564 133.889 480.459 134.306 480.255 134.671C480.055 135.027 479.762 135.316 479.411 135.503C479.041 135.693 478.641 135.815 478.231 135.862V136.947H477.946V135.882C477.532 135.879 477.123 135.79 476.741 135.623C476.36 135.474 476.024 135.221 475.767 134.89C475.541 134.594 475.419 134.225 475.421 133.846C475.413 133.579 475.492 133.317 475.643 133.103C475.703 133.011 475.784 132.935 475.878 132.883C475.972 132.83 476.076 132.802 476.183 132.801C476.246 132.798 476.31 132.81 476.369 132.834C476.429 132.859 476.483 132.896 476.528 132.943C476.573 132.991 476.609 133.047 476.632 133.109C476.656 133.172 476.667 133.238 476.665 133.305C476.643 133.51 476.561 133.703 476.43 133.856C476.362 133.952 476.303 134.054 476.256 134.162C476.223 134.246 476.207 134.337 476.208 134.428C476.209 134.67 476.288 134.905 476.433 135.095C476.591 135.307 476.8 135.471 477.039 135.569C477.312 135.681 477.602 135.735 477.895 135.729H477.946V131.383L477.584 131.163C477.242 130.955 476.981 130.782 476.801 130.644C476.625 130.511 476.463 130.359 476.316 130.192C475.951 129.784 475.749 129.246 475.751 128.688C475.75 128.34 475.832 127.997 475.992 127.693C476.149 127.389 476.378 127.133 476.658 126.951C477.048 126.704 477.491 126.564 477.946 126.545ZM477.946 126.691C477.7 126.699 477.458 126.755 477.232 126.857C477.007 126.974 476.821 127.162 476.702 127.395C476.566 127.648 476.496 127.935 476.5 128.225C476.497 128.58 476.601 128.926 476.796 129.215C476.9 129.372 477.024 129.513 477.166 129.634C477.395 129.813 477.634 129.977 477.883 130.125L477.946 130.165V126.691ZM478.231 135.716C478.395 135.701 478.556 135.666 478.711 135.609C478.837 135.558 478.954 135.486 479.058 135.396C479.254 135.221 479.406 134.998 479.5 134.747C479.611 134.47 479.667 134.173 479.665 133.872C479.639 133.39 479.494 132.923 479.242 132.519C478.99 132.115 478.642 131.787 478.231 131.569V135.716Z" fill="white"/>
<path d="M231.255 141.231C230.076 141.141 228.893 141.324 227.789 141.766C226.685 142.209 225.687 142.899 224.865 143.79C224.043 144.681 223.417 145.75 223.032 146.922C222.646 148.094 222.51 149.341 222.633 150.574L196.625 163.368L209.355 171.547L232.101 158.144C234.061 157.789 235.83 156.692 237.072 155.061C238.313 153.43 238.941 151.377 238.837 149.293C238.733 147.208 237.903 145.236 236.506 143.75C235.108 142.264 233.24 141.368 231.255 141.231Z" fill="#FFB6B6"/>
<path d="M123.633 387.387L132.615 387.387L136.888 351.033L123.632 351.034L123.633 387.387Z" fill="#FFB6B6"/>
<path d="M121.342 384.31L139.031 384.309H139.032C142.021 384.31 144.889 385.556 147.003 387.774C149.117 389.992 150.304 393.001 150.304 396.138V396.522L121.343 396.523L121.342 384.31Z" fill="#2F2E41"/>
<path d="M169.465 387.387L178.448 387.387L182.721 351.033L169.464 351.034L169.465 387.387Z" fill="#FFB6B6"/>
<path d="M167.175 384.31L184.863 384.309H184.864C187.854 384.31 190.721 385.556 192.835 387.774C194.949 389.992 196.137 393.001 196.137 396.138V396.522L167.175 396.523L167.175 384.31Z" fill="#2F2E41"/>
<path d="M175.465 198.831L180.024 209.13L188.243 301.233L181.854 380.398H166.912L149.28 255.616L140.998 377.523L120.837 376.669L116.966 211.39L175.465 198.831Z" fill="#2F2E41"/>
<path d="M102.816 113.837L121.717 105.768L148.395 107.338L172.111 116.408L180.024 209.13C159.391 220.953 138.491 224.18 117.226 215.726L97.4914 155.333L102.816 113.837Z" fill="#E4E4E4"/>
<path d="M164.733 118.859L173.12 116.408C173.12 116.408 179.464 112.079 181.551 124.946C183.639 137.812 194.378 157.825 194.378 157.825L212.764 147.544L221.276 167.05L192.241 185.505L161.665 153.178L164.733 118.859Z" fill="#E4E4E4"/>
<path d="M118.726 88.5895C117.707 86.1643 117.154 83.5523 117.098 80.9027C117.041 78.2531 117.482 75.6178 118.396 73.1472C119.31 70.6766 120.679 68.4191 122.425 66.5036C124.17 64.5881 126.258 63.0521 128.569 61.9833C130.881 60.9145 133.37 60.3338 135.895 60.2745C138.42 60.2152 140.931 60.6783 143.286 61.6374C145.64 62.5965 147.792 64.0329 149.617 65.8645C151.443 67.696 152.907 69.887 153.925 72.3122L154.035 72.5791C156.059 77.4933 156.139 83.0498 154.259 88.0263C153.328 90.4904 151.943 92.7379 150.184 94.6405C148.425 96.5431 146.326 98.0635 144.007 99.115C139.324 101.239 134.029 101.323 129.286 99.3496C124.544 97.3763 120.742 93.5069 118.719 88.5927L118.726 88.5895Z" fill="#FFB6B6"/>
<path d="M144.837 70.1189C148.836 70.8803 155.025 73.5222 158.46 70.4228C156.764 68.3431 154.63 66.7054 152.227 65.6391C151.754 65.4744 151.316 65.2145 150.937 64.8741C149.766 63.6323 150.671 61.4927 150.135 59.8138C149.875 59.2002 149.482 58.6585 148.989 58.2313C148.495 57.8041 147.913 57.5031 147.29 57.3519C146.098 56.9777 144.848 56.9169 143.677 56.463C140.906 55.3701 138.936 52.2425 136.095 51.3926C133.62 50.6414 131.13 51.8089 128.994 53.1713C126.858 54.5338 124.745 56.1503 122.246 56.4089C120.378 56.5876 119.196 59.8107 117.322 59.9051C113.393 60.1056 113.611 57.3887 113.321 61.7193C113.153 64.3035 109.634 69.4446 109.691 72.0513C109.749 73.7593 109.461 75.451 109.508 77.1644C109.613 80.4276 110.861 83.5357 113.012 85.8952C114.8 87.8251 117.126 89.1269 118.632 91.3267C119.415 92.4946 119.958 93.8578 120.869 94.9145C121.781 95.9712 123.324 96.6072 124.342 95.8528C125.359 95.0983 125.378 93.4656 125.883 92.2232C126.192 91.4615 126.721 90.8205 127.395 90.3899C128.069 89.9593 128.855 89.7608 129.642 89.822C130.459 89.9342 131.23 90.2833 131.869 90.8304C132.508 91.3774 132.988 92.1005 133.256 92.9184C132.78 90.1728 131.524 87.6002 131.047 84.8525C130.57 82.1048 131.192 78.8224 133.447 77.7497C134.415 77.2769 135.722 77.1499 136.112 76.0607C136.35 75.4046 136.132 74.6294 136.224 73.9197C136.719 70.4423 142.23 69.582 144.837 70.1189Z" fill="#2F2E41"/>
<path d="M119.493 214.654C119.32 213.427 118.894 212.255 118.243 211.22C117.592 210.185 116.733 209.313 115.726 208.664C114.719 208.015 113.589 207.606 112.415 207.465C111.241 207.324 110.052 207.455 108.931 207.848L91.3897 183.98L86.5403 198.793L103.941 219.188C104.696 221.119 106.1 222.693 107.887 223.611C109.673 224.529 111.719 224.728 113.636 224.169C115.553 223.61 117.208 222.333 118.287 220.579C119.367 218.826 119.795 216.717 119.493 214.654V214.654Z" fill="#FFB6B6"/>
<path d="M108.875 118.339L102.816 113.837C102.816 113.837 88.9555 113.004 86.9391 124.946L61.5233 168.818L93.0357 214.436L108.314 197.56L89.0361 173.921L105.222 142.738L108.875 118.339Z" fill="#E4E4E4"/>
<path d="M256.486 125.291H256.169V116.154C256.169 115.459 256.038 114.772 255.785 114.13C255.532 113.489 255.16 112.906 254.693 112.414C254.225 111.923 253.669 111.534 253.058 111.268C252.446 111.002 251.791 110.866 251.129 110.866H232.681C232.019 110.866 231.364 111.002 230.752 111.268C230.141 111.534 229.585 111.923 229.117 112.414C228.649 112.906 228.278 113.489 228.025 114.13C227.771 114.772 227.641 115.459 227.641 116.154V166.28C227.641 166.974 227.771 167.662 228.025 168.304C228.278 168.945 228.649 169.528 229.117 170.019C229.585 170.51 230.141 170.9 230.752 171.166C231.364 171.431 232.019 171.568 232.681 171.568H251.129C251.791 171.568 252.446 171.431 253.057 171.166C253.669 170.9 254.225 170.51 254.693 170.019C255.16 169.528 255.532 168.945 255.785 168.304C256.038 167.662 256.169 166.974 256.169 166.28V131.795H256.486V125.291Z" fill="#3F3D56"/>
<path d="M251.332 112.241H248.924C249.035 112.526 249.077 112.835 249.047 113.141C249.017 113.448 248.916 113.741 248.753 113.997C248.589 114.252 248.368 114.461 248.109 114.606C247.851 114.751 247.562 114.826 247.269 114.826H236.7C236.407 114.826 236.118 114.751 235.859 114.606C235.601 114.461 235.38 114.252 235.216 113.997C235.053 113.741 234.951 113.448 234.921 113.141C234.891 112.835 234.934 112.526 235.044 112.241H232.795C231.797 112.241 230.84 112.657 230.134 113.398C229.428 114.139 229.032 115.143 229.032 116.191V166.243C229.032 167.29 229.428 168.295 230.134 169.036C230.84 169.776 231.797 170.192 232.795 170.192H251.332C252.33 170.192 253.288 169.776 253.994 169.036C254.699 168.295 255.096 167.29 255.096 166.243V116.191C255.096 115.143 254.699 114.139 253.994 113.398C253.288 112.657 252.33 112.241 251.332 112.241Z" fill="#DFE16C"/>
<path d="M417.734 94.4171H282.45C281.616 94.4161 280.816 94.068 280.227 93.4491C279.637 92.8302 279.305 91.9911 279.304 91.1158V3.30131C279.305 2.42605 279.637 1.58693 280.227 0.968034C280.816 0.349137 281.616 0.00100167 282.45 0H417.734C418.569 0.00100167 419.368 0.349137 419.958 0.968034C420.548 1.58693 420.88 2.42605 420.881 3.30131V91.1158C420.88 91.9911 420.548 92.8302 419.958 93.4491C419.368 94.068 418.569 94.4161 417.734 94.4171Z" fill="white"/>
<path d="M417.734 94.4171H282.45C281.616 94.4161 280.816 94.068 280.227 93.4491C279.637 92.8302 279.305 91.9911 279.304 91.1158V3.30131C279.305 2.42605 279.637 1.58693 280.227 0.968034C280.816 0.349137 281.616 0.00100167 282.45 0H417.734C418.569 0.00100167 419.368 0.349137 419.958 0.968034C420.548 1.58693 420.88 2.42605 420.881 3.30131V91.1158C420.88 91.9911 420.548 92.8302 419.958 93.4491C419.368 94.068 418.569 94.4161 417.734 94.4171ZM282.45 1.32052C281.95 1.32109 281.47 1.52997 281.116 1.90131C280.762 2.27266 280.563 2.77615 280.562 3.30131V91.1158C280.563 91.641 280.762 92.1445 281.116 92.5158C281.47 92.8872 281.95 93.096 282.45 93.0966H417.734C418.235 93.096 418.715 92.8872 419.069 92.5158C419.422 92.1445 419.622 91.641 419.622 91.1158V3.30131C419.622 2.77615 419.422 2.27266 419.069 1.90131C418.715 1.52997 418.235 1.32109 417.734 1.32052H282.45Z" fill="#3F3D56"/>
<path d="M390.992 29.3276H309.192C308.441 29.3276 307.721 29.0145 307.19 28.4573C306.659 27.9001 306.361 27.1444 306.361 26.3564C306.361 25.5684 306.659 24.8126 307.19 24.2554C307.721 23.6982 308.441 23.3852 309.192 23.3852H390.992C391.743 23.3852 392.463 23.6982 392.994 24.2554C393.525 24.8126 393.824 25.5684 393.824 26.3564C393.824 27.1444 393.525 27.9001 392.994 28.4573C392.463 29.0145 391.743 29.3276 390.992 29.3276Z" fill="#CCCCCC"/>
<path d="M390.992 49.7956H309.192C308.441 49.7956 307.721 49.4826 307.19 48.9254C306.659 48.3682 306.361 47.6124 306.361 46.8244C306.361 46.0364 306.659 45.2807 307.19 44.7235C307.721 44.1663 308.441 43.8533 309.192 43.8533H390.992C391.743 43.8533 392.463 44.1663 392.994 44.7235C393.525 45.2807 393.824 46.0364 393.824 46.8244C393.824 47.6124 393.525 48.3682 392.994 48.9254C392.463 49.4826 391.743 49.7956 390.992 49.7956Z" fill="#CCCCCC"/>
<path d="M383.705 82.2481C389.293 82.2481 393.824 77.4942 393.824 71.63C393.824 65.7658 389.293 61.0119 383.705 61.0119C378.116 61.0119 373.586 65.7658 373.586 71.63C373.586 77.4942 378.116 82.2481 383.705 82.2481Z" fill="#DFE16C"/>
<path d="M383.983 66.6279V65.6163H384.268V66.6279C384.672 66.6464 385.069 66.7481 385.435 66.9274C385.701 67.0585 385.93 67.2591 386.101 67.5099C386.259 67.742 386.343 68.0201 386.342 68.3051C386.348 68.5134 386.282 68.7169 386.155 68.8775C386.1 68.9506 386.031 69.0097 385.951 69.05C385.871 69.0904 385.784 69.1111 385.695 69.1104C385.629 69.1118 385.564 69.0989 385.502 69.0725C385.441 69.0462 385.386 69.007 385.34 68.9574C385.292 68.9079 385.255 68.8488 385.23 68.7835C385.204 68.7183 385.192 68.6483 385.194 68.578C385.194 68.4795 385.214 68.3821 385.251 68.2918L385.365 68.0389C385.406 67.9332 385.425 67.82 385.422 67.7061C385.426 67.5298 385.372 67.3575 385.27 67.2171C385.159 67.0698 385.009 66.9599 384.839 66.9008C384.654 66.8371 384.462 66.7969 384.268 66.781V70.4215L384.332 70.4614C384.928 70.7925 385.469 71.2217 385.936 71.7326C386.143 71.9893 386.307 72.2807 386.421 72.5946C386.535 72.8988 386.595 73.2226 386.596 73.5495C386.601 73.9727 386.496 74.3893 386.291 74.7542C386.092 75.1103 385.799 75.399 385.448 75.5861C385.077 75.7767 384.678 75.8983 384.268 75.9455V77.0303H383.983V75.9655C383.569 75.962 383.159 75.8738 382.778 75.7059C382.397 75.5573 382.061 75.3045 381.804 74.9738C381.578 74.6773 381.456 74.3085 381.458 73.9289C381.45 73.6623 381.529 73.4007 381.68 73.1867C381.74 73.0944 381.821 73.0187 381.915 72.966C382.008 72.9133 382.113 72.8852 382.219 72.884C382.283 72.8817 382.347 72.8931 382.406 72.9176C382.466 72.9421 382.52 72.9792 382.565 73.0266C382.61 73.0739 382.646 73.1304 382.669 73.1927C382.693 73.2551 382.704 73.3218 382.702 73.3887C382.68 73.5936 382.598 73.7863 382.467 73.9399C382.398 74.0349 382.34 74.1373 382.292 74.2454C382.26 74.3297 382.244 74.42 382.245 74.5109C382.246 74.7537 382.325 74.9888 382.47 75.1782C382.628 75.3903 382.837 75.5542 383.076 75.6529C383.348 75.7645 383.639 75.8187 383.932 75.8124H383.983V71.4664L383.621 71.2468C383.279 71.0383 383.018 70.8653 382.838 70.7276C382.662 70.594 382.5 70.4424 382.353 70.2751C381.988 69.8678 381.786 69.3296 381.788 68.7709C381.786 68.4232 381.869 68.0807 382.029 67.7761C382.186 67.4721 382.415 67.2162 382.695 67.0339C383.085 66.7872 383.528 66.6476 383.983 66.6279ZM383.983 66.7743C383.737 66.7824 383.495 66.8387 383.269 66.9405C383.043 67.0578 382.858 67.2458 382.739 67.4785C382.603 67.7317 382.533 68.0181 382.537 68.3087C382.534 68.6632 382.638 69.0095 382.833 69.2985C382.937 69.4558 383.061 69.5968 383.203 69.7171C383.432 69.8964 383.671 70.0605 383.92 70.2086L383.983 70.2485V66.7743ZM384.268 75.7991C384.432 75.7847 384.593 75.749 384.748 75.6926C384.874 75.6415 384.991 75.5696 385.095 75.4796C385.291 75.3046 385.443 75.0818 385.537 74.8308C385.648 74.5536 385.703 74.2559 385.702 73.9555C385.676 73.4734 385.531 73.0068 385.279 72.6025C385.027 72.1983 384.679 71.8707 384.268 71.6528V75.7991Z" fill="white"/>
</g>
<defs>
<clipPath id="clip0_9_510">
<rect width="607" height="397" fill="white"/>
</clipPath>
</defs>
</svg>
