<svg width="607" height="397" viewBox="0 0 607 397" fill="none" xmlns="http://www.w3.org/2000/svg">
<path d="M592.589 242.462H571.247C570.791 242.463 570.34 242.36 569.93 242.161C569.519 241.962 569.158 241.671 568.875 241.312C568.595 240.962 568.397 240.552 568.297 240.114C568.196 239.676 568.196 239.221 568.296 238.783C570.3 229.879 570.203 220.626 568.014 211.766C567.845 211.089 567.914 210.373 568.21 209.741C568.507 209.109 569.012 208.6 569.639 208.301C578.554 204.102 586.741 204.212 593.971 208.626C594.35 208.854 594.675 209.163 594.923 209.53C595.171 209.898 595.337 210.315 595.409 210.754C596.941 220.386 597 230.197 595.583 239.847C595.482 240.574 595.124 241.239 594.573 241.719C594.023 242.2 593.318 242.464 592.589 242.462Z" fill="#DFE16C"/>
<path d="M592.265 228.391H575.946C575.541 228.39 575.152 228.228 574.866 227.939C574.58 227.65 574.419 227.259 574.419 226.851C574.419 226.443 574.58 226.051 574.866 225.762C575.152 225.474 575.541 225.311 575.946 225.31H592.265C592.671 225.311 593.059 225.474 593.346 225.762C593.632 226.051 593.793 226.443 593.793 226.851C593.793 227.259 593.632 227.65 593.346 227.939C593.059 228.228 592.671 228.39 592.265 228.391Z" fill="white"/>
<path d="M592.265 222.988H575.946C575.541 222.988 575.152 222.825 574.866 222.536C574.58 222.247 574.419 221.856 574.419 221.448C574.419 221.04 574.58 220.649 574.866 220.36C575.152 220.071 575.541 219.908 575.946 219.907H592.265C592.671 219.908 593.059 220.071 593.346 220.36C593.632 220.649 593.793 221.04 593.793 221.448C593.793 221.856 593.632 222.247 593.346 222.536C593.059 222.825 592.671 222.988 592.265 222.988Z" fill="white"/>
<path d="M165.185 240.309C227.821 240.309 278.598 189.211 278.598 126.178C278.598 63.1456 227.821 12.0475 165.185 12.0475C102.549 12.0475 51.7726 63.1456 51.7726 126.178C51.7726 189.211 102.549 240.309 165.185 240.309Z" fill="#F2F2F2"/>
<path d="M296.717 236.932C308.577 236.932 318.191 227.257 318.191 215.322C318.191 203.387 308.577 193.711 296.717 193.711C284.857 193.711 275.242 203.387 275.242 215.322C275.242 227.257 284.857 236.932 296.717 236.932Z" fill="#F2F2F2"/>
<path d="M404.761 285.556C409.579 285.556 413.485 281.625 413.485 276.777C413.485 271.928 409.579 267.997 404.761 267.997C399.943 267.997 396.037 271.928 396.037 276.777C396.037 281.625 399.943 285.556 404.761 285.556Z" fill="#F2F2F2"/>
<path d="M472.12 311.307C468.441 283.016 450.827 255.231 423.935 246.19C434.703 275.264 434.904 307.234 424.503 336.443C420.451 347.694 414.781 359.782 418.731 371.069C421.189 378.091 427.126 383.438 433.746 386.763C440.367 390.088 447.701 391.645 454.943 393.171L456.373 394.347C467.688 368.185 475.799 339.598 472.12 311.307Z" fill="#F2F2F2"/>
<path d="M423.672 246.727C439.411 264.246 449.263 286.309 451.831 309.784C452.351 314.817 452.443 319.967 451.381 324.938C450.308 329.775 447.968 334.235 444.604 337.854C441.534 341.292 437.999 344.451 435.813 348.58C433.509 352.932 433.451 357.86 435.077 362.457C437.065 368.081 440.944 372.65 444.89 376.986C449.273 381.801 453.9 386.731 455.791 393.139C456.02 393.916 457.204 393.513 456.975 392.737C453.686 381.589 442.871 375.314 437.669 365.287C435.242 360.608 434.201 355.165 436.417 350.196C438.355 345.85 441.998 342.589 445.136 339.135C448.431 335.509 450.95 331.537 452.23 326.755C453.539 321.863 453.647 316.698 453.258 311.674C452.29 300.289 449.549 289.127 445.136 278.599C440.165 266.554 433.184 255.454 424.493 245.779C423.955 245.18 423.138 246.132 423.673 246.727H423.672Z" fill="white"/>
<path d="M451.447 302.176C455.302 301.208 458.69 298.892 461.005 295.643C463.32 292.393 464.412 288.421 464.086 284.435C464.017 283.629 462.769 283.699 462.838 284.506C463.148 288.217 462.131 291.917 459.969 294.938C457.807 297.96 454.643 300.105 451.047 300.985C450.266 301.177 450.67 302.367 451.447 302.176Z" fill="white"/>
<path d="M446.389 336.317C439.388 332.171 434.197 325.523 431.851 317.697C431.62 316.922 430.436 317.324 430.667 318.099C433.124 326.238 438.539 333.146 445.834 337.444C446.529 337.853 447.08 336.724 446.389 336.317Z" fill="white"/>
<path d="M439.013 267.753C437.599 268.44 436.037 268.763 434.468 268.693C432.9 268.623 431.372 268.162 430.024 267.352C429.334 266.934 428.784 268.063 429.47 268.478C430.963 269.367 432.65 269.874 434.383 269.955C436.117 270.037 437.843 269.69 439.413 268.944C439.566 268.887 439.692 268.772 439.765 268.624C439.838 268.476 439.852 268.306 439.805 268.148C439.751 267.99 439.638 267.86 439.49 267.786C439.341 267.712 439.17 267.7 439.013 267.753V267.753Z" fill="white"/>
<path d="M342.467 297.288C342.891 297.561 343.314 297.835 343.739 298.119C349.413 301.822 354.78 305.982 359.785 310.56C360.178 310.908 360.57 311.266 360.952 311.625C372.894 322.783 382.673 336.075 389.793 350.825C392.621 356.698 395.001 362.778 396.912 369.013C399.551 377.625 401.731 387.174 406.891 394.198C407.421 394.937 407.996 395.643 408.613 396.31L454.838 396.012C454.942 395.959 455.048 395.915 455.153 395.862L456.999 395.935C456.923 395.606 456.837 395.267 456.76 394.939C456.717 394.748 456.663 394.557 456.62 394.366C456.587 394.239 456.555 394.112 456.533 393.995C456.522 393.953 456.511 393.911 456.501 393.879C456.479 393.762 456.446 393.656 456.424 393.55C455.948 391.654 455.458 389.757 454.954 387.86C454.954 387.85 454.954 387.85 454.944 387.839C451.065 373.398 445.955 359.156 438.858 346.147C438.645 345.756 438.432 345.354 438.197 344.963C434.966 339.117 431.266 333.546 427.133 328.307C424.861 325.446 422.446 322.702 419.898 320.086C413.302 313.34 405.692 307.68 397.348 303.313C380.713 294.611 361.498 291.36 343.814 296.855C343.362 296.996 342.92 297.137 342.467 297.288Z" fill="#F2F2F2"/>
<path d="M342.575 297.878C365.622 302.33 386.689 313.977 402.784 331.165C406.21 334.868 409.365 338.925 411.491 343.537C413.528 348.049 414.328 353.027 413.807 357.956C413.413 362.56 412.48 367.225 413.205 371.846C413.969 376.716 416.872 380.687 420.919 383.372C425.872 386.658 431.703 387.957 437.448 389.027C443.827 390.216 450.472 391.349 455.815 395.32C456.463 395.801 457.167 394.762 456.52 394.282C447.224 387.373 434.835 388.915 424.683 384.061C419.946 381.796 415.858 378.081 414.654 372.77C413.601 368.126 414.559 363.316 414.999 358.657C415.46 353.765 415.094 349.067 413.256 344.473C411.375 339.774 408.371 335.585 405.054 331.81C397.469 323.306 388.603 316.054 378.78 310.322C367.606 303.716 355.39 299.083 342.663 296.623C341.875 296.471 341.792 297.727 342.575 297.878Z" fill="white"/>
<path d="M397.925 325.323C400.424 322.214 401.744 318.313 401.648 314.315C401.552 310.318 400.048 306.485 397.403 303.501C396.866 302.899 395.911 303.71 396.449 304.313C398.917 307.087 400.318 310.658 400.4 314.381C400.481 318.103 399.238 321.733 396.894 324.614C396.385 325.241 397.42 325.946 397.925 325.323Z" fill="white"/>
<path d="M414.313 355.647C406.243 356.579 398.121 354.415 391.566 349.588C390.917 349.109 390.212 350.148 390.861 350.626C397.691 355.637 406.148 357.871 414.544 356.883C415.344 356.788 415.108 355.553 414.313 355.647Z" fill="white"/>
<path d="M367.403 305.371C366.685 306.777 365.632 307.981 364.337 308.876C363.043 309.77 361.547 310.328 359.986 310.497C359.185 310.581 359.421 311.817 360.217 311.733C361.941 311.538 363.592 310.92 365.024 309.935C366.457 308.95 367.628 307.626 368.435 306.081C368.523 305.941 368.555 305.774 368.525 305.611C368.495 305.449 368.404 305.304 368.271 305.207C368.134 305.113 367.966 305.078 367.804 305.109C367.641 305.14 367.497 305.234 367.403 305.371H367.403Z" fill="white"/>
<path d="M564.171 200.741L557.92 139.851L556.27 114.791L573.767 111.607C573.767 111.607 576.387 128.835 578.679 138.945C580.941 148.921 575.665 199.404 575.526 200.736C576.811 201.892 577.716 203.414 578.123 205.099C578.53 206.785 578.419 208.555 577.804 210.176C577.19 211.797 576.101 213.191 574.681 214.176C573.262 215.16 571.579 215.687 569.855 215.688C568.132 215.689 566.448 215.163 565.028 214.18C563.608 213.197 562.517 211.804 561.901 210.184C561.285 208.564 561.172 206.793 561.577 205.107C561.983 203.421 562.887 201.899 564.171 200.741Z" fill="#FFB8B8"/>
<path d="M492.672 387.701H483.771L479.536 353.151L492.674 353.152L492.672 387.701Z" fill="#FFB6B6"/>
<path d="M494.942 396.384L466.242 396.383V396.018C466.242 393.037 467.419 390.177 469.514 388.069C471.609 385.961 474.45 384.777 477.413 384.776H477.413L482.656 380.774L492.437 384.777L494.943 384.777L494.942 396.384Z" fill="#2F2E41"/>
<path d="M571.12 387.701H562.219L557.984 353.151L571.122 353.152L571.12 387.701Z" fill="#FFB6B6"/>
<path d="M573.39 396.384L544.689 396.383V396.018C544.69 393.037 545.867 390.177 547.962 388.069C550.056 385.961 552.898 384.777 555.86 384.776H555.861L561.104 380.774L570.885 384.777L573.39 384.777L573.39 396.384Z" fill="#2F2E41"/>
<path d="M557.582 202.789L565.068 274.361C565.068 274.361 575.035 346.025 573.163 355.913C571.291 365.801 573.631 367.214 573.631 367.214L556.553 365.99C556.553 365.99 557.021 359.868 554.213 357.043C551.406 354.218 552.81 345.742 552.81 345.742L519.682 229.157L499.562 290.37C499.562 290.37 496.286 357.704 495.818 358.646C495.351 359.588 493.947 372.301 493.947 372.301H476.634C476.634 372.301 478.974 364.767 475.698 362.413C472.423 360.059 469.616 361.942 472.423 357.704C475.231 353.466 476.166 348.287 475.231 345.933C474.295 343.578 474.295 334.161 474.295 334.161C474.295 334.161 475.698 207.027 483.653 202.789C491.607 198.551 557.582 202.789 557.582 202.789Z" fill="#2F2E41"/>
<path d="M522.128 57.8739C532.297 57.8739 540.541 49.5777 540.541 39.3437C540.541 29.1098 532.297 20.8136 522.128 20.8136C511.958 20.8136 503.714 29.1098 503.714 39.3437C503.714 49.5777 511.958 57.8739 522.128 57.8739Z" fill="#FFB8B8"/>
<path d="M576.716 121.321L558.606 127.857L553.091 129.846L549.065 78.0974L562.881 85.4717C562.905 85.4889 562.925 85.5095 562.942 85.5328C565.335 88.1923 567.338 91.1825 568.89 94.4126C576.467 109.914 576.716 121.321 576.716 121.321Z" fill="#3F3D56"/>
<path d="M451.959 196.37C451.959 196.37 470.366 138.819 470.688 138.129C473.098 119.705 480.032 111.579 481.072 112.461L498.968 118.7C498.968 118.7 493.645 135.664 490.041 145.74C486.597 155.368 463.011 199.82 462.348 200.981C463.06 202.561 463.277 204.322 462.973 206.029C462.668 207.736 461.856 209.31 460.643 210.543C459.43 211.776 457.874 212.609 456.18 212.932C454.487 213.255 452.736 213.053 451.158 212.353C449.581 211.653 448.253 210.488 447.348 209.011C446.443 207.535 446.005 205.816 446.092 204.084C446.179 202.352 446.786 200.686 447.834 199.309C448.882 197.931 450.32 196.906 451.96 196.37H451.959Z" fill="#FFB8B8"/>
<path d="M507.565 81.4301C507.565 81.4301 492.07 73.7882 486.061 88.7973C482.125 98.9194 480.261 103.335 477.633 113.877C477.633 113.877 493.427 116.262 498.492 125.244L507.565 81.4301Z" fill="#3F3D56"/>
<path d="M563.946 210.589C528.285 218 481.028 205.259 481.028 205.259L493.635 150.267L489.153 92.7174C488.605 85.6797 492.589 79.0827 498.785 76.745L507.342 73.5199L514.414 63.3305L534.616 63.9975L542.692 74.6948L549.065 78.0974L562.881 85.4717L562.942 85.5023V85.5328L558.606 127.857L555.991 153.376C555.991 153.376 563.933 182.078 562.304 185.884C560.674 189.684 562.091 187.849 562.486 189.88C562.881 191.912 564.092 192.041 564.274 196.043C564.463 200.039 563.946 210.589 563.946 210.589Z" fill="#3F3D56"/>
<path d="M542.103 32.7453C540.647 31.3007 542.838 27.4761 542.424 25.4617C541.95 23.152 539.421 23.0845 538.817 20.8055C538.168 18.3538 535.573 17.0192 533.173 16.2422C527.02 14.2612 520.456 13.9586 514.15 15.3654C511.359 16.0512 508.611 16.9031 505.92 17.9166C504.062 18.5744 505.854 16.7843 503.996 17.4422C503.293 17.5999 502.673 18.0141 502.255 18.605C501.921 19.2403 502.371 20.2565 503.074 20.1278C500.806 21.1341 498.539 22.1404 496.271 23.1468C497.543 24.4874 498.814 25.8281 500.086 27.1688C498.278 26.651 496.351 28.8202 497.064 30.5705C497.35 31.1231 497.766 31.5972 498.276 31.952C498.785 32.3068 499.372 32.5317 499.987 32.6072C502.03 33.0072 500.48 34.9634 502.561 34.9253C504.642 34.8872 519.15 30.5954 520.161 32.4254C520.881 33.7285 520.802 35.4546 521.831 36.5283C523.146 37.9018 525.444 37.3995 527.118 36.5053C528.793 35.6111 530.491 34.382 532.375 34.5964C534.342 34.8202 535.829 38.4777 536.314 40.4091C536.798 42.3404 536.492 44.3725 536.184 46.3401C535.779 48.9242 531.725 51.5082 531.321 54.0922C535.82 55.3442 540.646 51.3605 542.424 44.4328C542.247 40.0535 545.203 35.8236 542.103 32.7453Z" fill="#2F2E41"/>
<path d="M255.848 273.403C201.642 273.406 154.479 232.713 147.512 177.211L148.843 177.041C155.725 231.858 202.313 272.049 255.849 272.052C260.397 272.052 264.941 271.764 269.454 271.188C328.499 263.682 370.468 209.234 363.008 149.815L364.34 149.645C371.892 209.803 329.402 264.929 269.622 272.528C265.053 273.11 260.453 273.402 255.848 273.403Z" fill="#3F3D56"/>
<path d="M258.758 295.992H237.415C236.959 295.993 236.509 295.89 236.098 295.69C235.688 295.491 235.327 295.201 235.043 294.842C234.763 294.491 234.566 294.082 234.465 293.644C234.365 293.206 234.365 292.75 234.464 292.312C236.49 283.317 236.37 273.968 234.115 265.028C233.962 264.411 234.005 263.76 234.24 263.169C234.476 262.578 234.89 262.077 235.425 261.737C242.808 257.134 250.848 257.278 260.005 262.177C260.421 262.398 260.781 262.712 261.057 263.096C261.333 263.48 261.517 263.922 261.594 264.389C263.111 273.987 263.164 283.762 261.752 293.377C261.651 294.103 261.292 294.768 260.742 295.249C260.192 295.73 259.487 295.994 258.758 295.992Z" fill="#DFE16C"/>
<path d="M161.452 181.186H140.109C139.653 181.187 139.203 181.084 138.792 180.884C138.381 180.685 138.02 180.395 137.737 180.036C137.457 179.685 137.259 179.276 137.159 178.838C137.059 178.4 137.058 177.944 137.158 177.506C139.19 168.48 139.063 159.097 136.785 150.131C136.641 149.541 136.676 148.92 136.885 148.35C137.094 147.78 137.469 147.286 137.959 146.931C148.934 138.988 157.577 139.219 163.648 147.617C163.921 148 164.103 148.442 164.179 148.907C165.801 158.721 165.891 168.729 164.445 178.571C164.344 179.297 163.986 179.962 163.435 180.443C162.885 180.924 162.18 181.188 161.452 181.186Z" fill="#CCCCCC"/>
<path d="M248.786 275.834H241.444C241.039 275.833 240.65 275.67 240.364 275.381C240.077 275.093 239.916 274.701 239.916 274.293C239.916 273.885 240.077 273.494 240.364 273.205C240.65 272.916 241.039 272.754 241.444 272.753H248.786C249.192 272.753 249.581 272.915 249.868 273.204C250.156 273.493 250.317 273.885 250.317 274.293C250.317 274.702 250.156 275.094 249.868 275.383C249.581 275.672 249.192 275.834 248.786 275.834Z" fill="white"/>
<path d="M257.763 281.921H241.444C241.039 281.92 240.65 281.757 240.364 281.468C240.077 281.18 239.916 280.788 239.916 280.38C239.916 279.972 240.077 279.581 240.364 279.292C240.65 279.003 241.039 278.841 241.444 278.84H257.763C258.169 278.841 258.557 279.003 258.843 279.292C259.13 279.581 259.291 279.972 259.291 280.38C259.291 280.788 259.13 281.18 258.843 281.468C258.557 281.757 258.169 281.92 257.763 281.921Z" fill="white"/>
<path d="M154.835 159.677H147.493C147.087 159.676 146.699 159.514 146.412 159.225C146.126 158.936 145.965 158.545 145.965 158.137C145.965 157.729 146.126 157.337 146.412 157.048C146.699 156.76 147.087 156.597 147.493 156.596H154.835C155.24 156.597 155.629 156.76 155.915 157.048C156.202 157.337 156.362 157.729 156.362 158.137C156.362 158.545 156.202 158.936 155.915 159.225C155.629 159.514 155.24 159.676 154.835 159.677Z" fill="white"/>
<path d="M154.835 165.08H147.493C147.087 165.079 146.699 164.916 146.412 164.627C146.126 164.339 145.965 163.947 145.965 163.539C145.965 163.131 146.126 162.74 146.412 162.451C146.699 162.162 147.087 162 147.493 161.999H154.835C155.24 162 155.629 162.162 155.915 162.451C156.202 162.74 156.362 163.131 156.362 163.539C156.362 163.947 156.202 164.339 155.915 164.627C155.629 164.916 155.24 165.079 154.835 165.08Z" fill="white"/>
<path d="M154.835 170.482H147.493C147.087 170.482 146.699 170.319 146.412 170.03C146.126 169.741 145.965 169.35 145.965 168.942C145.965 168.534 146.126 168.143 146.412 167.854C146.699 167.565 147.087 167.402 147.493 167.401H154.835C155.24 167.402 155.629 167.565 155.915 167.854C156.202 168.143 156.362 168.534 156.362 168.942C156.362 169.35 156.202 169.741 155.915 170.03C155.629 170.319 155.24 170.482 154.835 170.482Z" fill="white"/>
<path d="M448.702 206.56H380.477C378.648 206.558 376.895 205.826 375.602 204.525C374.309 203.224 373.582 201.46 373.58 199.62V157.333C373.582 155.493 374.309 153.729 375.602 152.428C376.895 151.127 378.648 150.395 380.477 150.393H448.702C450.53 150.395 452.283 151.127 453.576 152.428C454.869 153.729 455.596 155.493 455.598 157.333V199.62C455.596 201.46 454.869 203.224 453.576 204.525C452.283 205.826 450.53 206.558 448.702 206.56Z" fill="#E6E6E6"/>
<path d="M421.595 201.113H385.272C383.56 201.111 381.918 200.426 380.707 199.207C379.496 197.989 378.815 196.337 378.813 194.613V162.339C378.815 160.616 379.496 158.964 380.707 157.745C381.918 156.527 383.56 155.841 385.272 155.84H443.906C445.619 155.842 447.261 156.527 448.471 157.745C449.682 158.964 450.363 160.616 450.365 162.339V172.161C450.357 179.837 447.323 187.196 441.929 192.624C436.535 198.051 429.223 201.104 421.595 201.113Z" fill="white"/>
<path d="M438.057 173.512H391.121C390.715 173.512 390.326 173.35 390.039 173.061C389.752 172.772 389.591 172.38 389.591 171.972C389.591 171.563 389.752 171.171 390.039 170.882C390.326 170.594 390.715 170.431 391.121 170.431H438.057C438.463 170.431 438.852 170.594 439.14 170.882C439.427 171.171 439.588 171.563 439.588 171.972C439.588 172.38 439.427 172.772 439.14 173.061C438.852 173.35 438.463 173.512 438.057 173.512Z" fill="#DFE16C"/>
<path d="M398.463 179.599H391.121C390.716 179.598 390.327 179.436 390.041 179.147C389.755 178.858 389.594 178.467 389.594 178.059C389.594 177.651 389.755 177.259 390.041 176.97C390.327 176.682 390.716 176.519 391.121 176.518H398.463C398.869 176.519 399.257 176.682 399.544 176.97C399.83 177.259 399.991 177.651 399.991 178.059C399.991 178.467 399.83 178.858 399.544 179.147C399.257 179.436 398.869 179.598 398.463 179.599Z" fill="#DFE16C"/>
<path d="M411.467 185.686H391.121C390.715 185.686 390.326 185.524 390.039 185.235C389.752 184.946 389.591 184.554 389.591 184.146C389.591 183.737 389.752 183.345 390.039 183.056C390.326 182.767 390.715 182.605 391.121 182.605H411.467C411.873 182.605 412.262 182.767 412.549 183.056C412.836 183.345 412.998 183.737 412.998 184.146C412.998 184.554 412.836 184.946 412.549 185.235C412.262 185.524 411.873 185.686 411.467 185.686Z" fill="#DFE16C"/>
<path d="M371.199 164.074C379.17 164.074 385.632 157.572 385.632 149.551C385.632 141.529 379.17 135.027 371.199 135.027C363.228 135.027 356.767 141.529 356.767 149.551C356.767 157.572 363.228 164.074 371.199 164.074Z" fill="#3F3D56"/>
<path d="M207.825 39.0676C208.78 34.1874 210.681 29.5443 213.42 25.4035C216.158 21.2627 219.68 17.7053 223.785 14.9343C232.075 9.33808 242.234 7.28503 252.028 9.22679C256.878 10.1883 261.492 12.1015 265.606 14.8574C269.721 17.6132 273.256 21.1577 276.01 25.2884C278.763 29.4191 280.681 34.0551 281.655 38.9317C282.628 43.8084 282.637 48.8302 281.681 53.7104L280.364 53.4494C282.225 43.9449 280.258 34.0859 274.895 26.0411C269.532 17.9964 261.214 12.4249 251.769 10.5524C242.324 8.67984 232.527 10.6596 224.533 16.0562C216.539 21.4528 211.003 29.8241 209.142 39.3286L207.825 39.0676Z" fill="#3F3D56"/>
<path d="M222.117 62.9637L200.793 63.8525C200.337 63.8724 199.883 63.7883 199.464 63.6065C199.046 63.4246 198.673 63.1497 198.375 62.8024C198.081 62.4641 197.867 62.0631 197.749 61.6296C197.63 61.196 197.611 60.7412 197.693 60.2992C199.329 51.3194 198.852 42.0787 196.3 33.3179C196.103 32.6479 196.143 31.9298 196.413 31.2862C196.684 30.6425 197.167 30.1131 197.782 29.7881C206.516 25.2214 214.701 24.9899 222.106 29.0991C222.494 29.3113 222.831 29.6061 223.095 29.963C223.358 30.3199 223.541 30.7303 223.63 31.1656C225.558 40.7255 226.02 50.526 225 60.2267C224.93 60.9566 224.599 61.636 224.069 62.1393C223.539 62.6425 222.845 62.9354 222.117 62.9637Z" fill="#DFE16C"/>
<path d="M221.215 48.9184L204.91 49.598C204.709 49.6065 204.508 49.5752 204.319 49.5056C204.13 49.4361 203.957 49.3298 203.809 49.1928C203.661 49.0557 203.541 48.8907 203.456 48.7071C203.372 48.5235 203.324 48.3249 203.315 48.1226C203.307 47.9204 203.338 47.7185 203.408 47.5284C203.477 47.3384 203.583 47.164 203.719 47.0151C203.855 46.8662 204.019 46.7458 204.202 46.6608C204.384 46.5758 204.582 46.5278 204.783 46.5196L221.088 45.84C221.289 45.8317 221.489 45.8632 221.678 45.9328C221.867 46.0024 222.04 46.1088 222.188 46.2458C222.336 46.3828 222.456 46.5478 222.54 46.7313C222.625 46.9148 222.672 47.1133 222.681 47.3155C222.689 47.5176 222.658 47.7194 222.589 47.9093C222.519 48.0993 222.414 48.2737 222.278 48.4225C222.141 48.5713 221.977 48.6917 221.795 48.7768C221.613 48.8619 221.415 48.91 221.215 48.9184Z" fill="white"/>
<path d="M220.992 43.5204L204.687 44.2C204.282 44.2169 203.886 44.071 203.587 43.7943C203.289 43.5176 203.111 43.1328 203.095 42.7246C203.078 42.3163 203.223 41.9181 203.498 41.6175C203.773 41.3169 204.155 41.1385 204.561 41.1216L220.866 40.442C221.271 40.4251 221.667 40.5711 221.966 40.8478C222.265 41.1245 222.442 41.5092 222.459 41.9175C222.475 42.3257 222.33 42.7239 222.055 43.0245C221.78 43.3251 221.398 43.5035 220.992 43.5204Z" fill="white"/>
<path d="M361.673 56.1669H293.448C291.619 56.1649 289.866 55.433 288.573 54.1319C287.281 52.8308 286.553 51.0668 286.551 49.2267V6.94022C286.553 5.1002 287.281 3.33614 288.573 2.03505C289.866 0.733961 291.619 0.00209166 293.448 5.72205e-06H361.673C363.502 0.00208451 365.255 0.73395 366.548 2.03504C367.84 3.33613 368.568 5.1002 368.57 6.94022V49.2267C368.568 51.0668 367.84 52.8308 366.548 54.1319C365.255 55.433 363.502 56.1649 361.673 56.1669Z" fill="#E6E6E6"/>
<path d="M334.566 50.7201H298.244C296.531 50.7182 294.889 50.0329 293.679 48.8143C292.468 47.5958 291.786 45.9437 291.784 44.2204V11.9464C291.786 10.2232 292.468 8.57103 293.679 7.35252C294.889 6.13401 296.531 5.44861 298.244 5.44671H356.878C358.59 5.44863 360.232 6.13403 361.443 7.35255C362.653 8.57107 363.335 10.2232 363.336 11.9464V21.7681C363.328 29.444 360.294 36.8031 354.9 42.2308C349.507 47.6585 342.194 50.7115 334.566 50.7201Z" fill="white"/>
<path d="M351.028 23.1192H304.093C303.687 23.1192 303.297 22.9569 303.01 22.668C302.723 22.3791 302.562 21.9873 302.562 21.5788C302.562 21.1702 302.723 20.7784 303.01 20.4895C303.297 20.2006 303.687 20.0384 304.093 20.0384H351.028C351.434 20.0384 351.824 20.2006 352.111 20.4895C352.398 20.7784 352.559 21.1702 352.559 21.5788C352.559 21.9873 352.398 22.3791 352.111 22.668C351.824 22.9569 351.434 23.1192 351.028 23.1192Z" fill="#DFE16C"/>
<path d="M311.435 29.2062H304.093C303.687 29.2053 303.299 29.0427 303.012 28.7538C302.726 28.465 302.565 28.0737 302.565 27.6657C302.565 27.2577 302.726 26.8663 303.012 26.5775C303.299 26.2887 303.687 26.1261 304.093 26.1252H311.435C311.84 26.1261 312.229 26.2887 312.515 26.5775C312.801 26.8663 312.962 27.2577 312.962 27.6657C312.962 28.0737 312.801 28.465 312.515 28.7538C312.229 29.0427 311.84 29.2053 311.435 29.2062Z" fill="#DFE16C"/>
<path d="M324.438 35.2932H304.093C303.687 35.2932 303.297 35.1309 303.01 34.842C302.723 34.5531 302.562 34.1612 302.562 33.7527C302.562 33.3441 302.723 32.9523 303.01 32.6634C303.297 32.3745 303.687 32.2122 304.093 32.2122H324.438C324.844 32.213 325.232 32.3757 325.519 32.6645C325.805 32.9533 325.966 33.3447 325.966 33.7527C325.966 34.1607 325.805 34.552 325.519 34.8408C325.232 35.1296 324.844 35.2923 324.438 35.2932Z" fill="#DFE16C"/>
<path d="M294.66 63.4872C298.868 56.6749 296.791 47.7195 290.022 43.4849C283.252 39.2502 274.353 41.3398 270.145 48.1522C265.937 54.9645 268.014 63.9199 274.783 68.1546C281.553 72.3892 290.452 70.2996 294.66 63.4872Z" fill="#3F3D56"/>
<path d="M90.1451 169.123C84.2238 153.37 84.7633 135.896 91.6449 120.544C98.5265 105.192 111.186 93.2192 126.84 87.2605C142.493 81.3017 159.857 81.8446 175.113 88.7697C190.368 95.6949 202.265 108.435 208.187 124.187L206.931 124.666C204.062 117.032 199.726 110.041 194.172 104.094C188.618 98.1459 181.954 93.3574 174.561 90.0013C167.168 86.6453 159.19 84.7875 151.084 84.534C142.977 84.2805 134.901 85.6363 127.315 88.524C119.729 91.4117 112.783 95.7747 106.872 101.364C100.962 106.953 96.2037 113.659 92.8687 121.099C89.5338 128.539 87.6877 136.567 87.4358 144.725C87.1839 152.883 88.5312 161.011 91.4007 168.644L90.1451 169.123Z" fill="#3F3D56"/>
<path d="M145.346 106.224H124.003C123.547 106.225 123.097 106.122 122.686 105.923C122.275 105.724 121.914 105.434 121.631 105.074C121.351 104.724 121.153 104.314 121.053 103.876C120.953 103.438 120.952 102.983 121.052 102.545C123.072 93.5708 122.958 84.2437 120.718 75.3227C120.559 74.6914 120.608 74.0253 120.857 73.4242C121.106 72.8231 121.542 72.3193 122.099 71.9883C129.83 67.4595 138.086 67.5977 146.637 72.4002C147.042 72.6223 147.391 72.9346 147.658 73.3131C147.925 73.6917 148.102 74.1265 148.176 74.5844C149.698 84.1947 149.753 93.9825 148.339 103.609C148.239 104.336 147.88 105.001 147.33 105.482C146.779 105.962 146.074 106.226 145.346 106.224Z" fill="#DFE16C"/>
<path d="M135.373 85.3909H128.032C127.626 85.39 127.238 85.2273 126.951 84.9385C126.665 84.6497 126.504 84.2584 126.504 83.8504C126.504 83.4424 126.665 83.051 126.951 82.7622C127.238 82.4734 127.626 82.3107 128.032 82.3099H135.373C135.779 82.3107 136.167 82.4734 136.454 82.7622C136.74 83.051 136.901 83.4424 136.901 83.8504C136.901 84.2584 136.74 84.6497 136.454 84.9385C136.167 85.2273 135.779 85.39 135.373 85.3909Z" fill="white"/>
<path d="M144.351 91.4778H128.032C127.626 91.4778 127.236 91.3155 126.949 91.0266C126.662 90.7377 126.501 90.3459 126.501 89.9373C126.501 89.5288 126.662 89.1369 126.949 88.848C127.236 88.5591 127.626 88.3968 128.032 88.3968H144.351C144.756 88.3977 145.144 88.5604 145.431 88.8492C145.717 89.138 145.878 89.5293 145.878 89.9373C145.878 90.3453 145.717 90.7367 145.431 91.0255C145.144 91.3143 144.756 91.477 144.351 91.4778Z" fill="white"/>
<path d="M75.1219 168.272H6.8965C5.06807 168.27 3.31511 167.538 2.02221 166.237C0.729313 164.935 0.00206214 163.171 0 161.331V119.045C0.00206214 117.205 0.729313 115.441 2.02221 114.14C3.31511 112.839 5.06807 112.107 6.8965 112.105H75.1219C76.9504 112.107 78.7033 112.839 79.9962 114.14C81.2891 115.441 82.0164 117.205 82.0185 119.045V161.331C82.0164 163.171 81.2891 164.936 79.9962 166.237C78.7033 167.538 76.9504 168.27 75.1219 168.272Z" fill="#E6E6E6"/>
<path d="M48.0149 162.825H11.6924C9.97993 162.823 8.33816 162.138 7.12725 160.919C5.91635 159.701 5.23519 158.048 5.23322 156.325V124.051C5.23519 122.328 5.91635 120.676 7.12725 119.457C8.33816 118.239 9.97993 117.553 11.6924 117.551H70.3264C72.0388 117.553 73.6805 118.239 74.8913 119.457C76.1022 120.676 76.7833 122.328 76.7852 124.051V133.873C76.7765 141.549 73.7426 148.908 68.349 154.335C62.9554 159.763 55.6426 162.816 48.0149 162.825Z" fill="white"/>
<path d="M64.4771 135.224H17.5414C17.1354 135.224 16.746 135.062 16.459 134.773C16.1719 134.484 16.0106 134.092 16.0106 133.683C16.0106 133.275 16.1719 132.883 16.459 132.594C16.746 132.305 17.1354 132.143 17.5414 132.143H64.4771C64.883 132.143 65.2724 132.305 65.5594 132.594C65.8465 132.883 66.0078 133.275 66.0078 133.683C66.0078 134.092 65.8465 134.484 65.5594 134.773C65.2724 135.062 64.883 135.224 64.4771 135.224Z" fill="#DFE16C"/>
<path d="M24.8833 141.311H17.5413C17.1359 141.31 16.7473 141.147 16.461 140.859C16.1746 140.57 16.0137 140.178 16.0137 139.77C16.0137 139.362 16.1746 138.971 16.461 138.682C16.7473 138.393 17.1359 138.231 17.5413 138.23H24.8833C25.2887 138.231 25.6773 138.393 25.9637 138.682C26.2501 138.971 26.4109 139.362 26.4109 139.77C26.4109 140.178 26.2501 140.57 25.9637 140.859C25.6773 141.147 25.2887 141.31 24.8833 141.311Z" fill="#DFE16C"/>
<path d="M37.8868 147.398H17.5413C17.1359 147.397 16.7473 147.234 16.461 146.946C16.1746 146.657 16.0137 146.265 16.0137 145.857C16.0137 145.449 16.1746 145.058 16.461 144.769C16.7473 144.48 17.1359 144.318 17.5413 144.317H37.8868C38.2928 144.317 38.6822 144.479 38.9693 144.768C39.2564 145.057 39.4176 145.449 39.4176 145.857C39.4176 146.266 39.2564 146.658 38.9693 146.947C38.6822 147.236 38.2928 147.398 37.8868 147.398Z" fill="#DFE16C"/>
<path d="M102.06 174.241C106.268 167.429 104.191 158.474 97.4219 154.239C90.6524 150.004 81.7534 152.094 77.5454 158.906C73.3374 165.719 75.4138 174.674 82.1833 178.909C88.9528 183.143 97.8518 181.054 102.06 174.241Z" fill="#3F3D56"/>
<path d="M218.493 146.744H197.151C196.695 146.745 196.244 146.642 195.834 146.443C195.423 146.244 195.062 145.953 194.779 145.594C194.499 145.244 194.301 144.834 194.201 144.396C194.1 143.958 194.1 143.503 194.2 143.064C196.216 134.106 196.106 124.796 193.878 115.889C193.72 115.249 193.773 114.574 194.03 113.968C194.288 113.361 194.735 112.855 195.303 112.527C205.671 106.555 213.881 106.72 220.401 113.031C220.858 113.482 221.159 114.068 221.26 114.704C222.844 124.442 222.921 134.368 221.487 144.129C221.386 144.856 221.028 145.521 220.477 146.001C219.927 146.482 219.222 146.746 218.493 146.744Z" fill="#FF6584"/>
<path d="M209.863 126.586H202.521C202.116 126.585 201.727 126.422 201.441 126.134C201.155 125.845 200.994 125.453 200.994 125.045C200.994 124.637 201.155 124.246 201.441 123.957C201.727 123.669 202.116 123.506 202.521 123.505H209.863C210.269 123.506 210.657 123.669 210.944 123.957C211.23 124.246 211.391 124.637 211.391 125.045C211.391 125.453 211.23 125.845 210.944 126.134C210.657 126.422 210.269 126.585 209.863 126.586Z" fill="white"/>
<path d="M218.84 132.673H202.521C202.115 132.673 201.726 132.511 201.439 132.222C201.152 131.933 200.991 131.541 200.991 131.132C200.991 130.724 201.152 130.332 201.439 130.043C201.726 129.754 202.115 129.592 202.521 129.592H218.84C219.246 129.593 219.634 129.755 219.921 130.044C220.207 130.333 220.368 130.724 220.368 131.132C220.368 131.54 220.207 131.932 219.921 132.221C219.634 132.509 219.246 132.672 218.84 132.673Z" fill="white"/>
</svg>
